<svg width="52" height="52" viewBox="0 0 52 52" fill="none" xmlns="http://www.w3.org/2000/svg">
<circle cx="26" cy="26" r="26" fill="#E13C52"/>
<path fill-rule="evenodd" clip-rule="evenodd" d="M30.4374 16C31.0921 16 31.7197 16.2614 32.1781 16.7234L35.279 19.8243C35.7407 20.286 36.0001 20.9122 36.0001 21.5651C36.0001 22.218 35.7407 22.8442 35.279 23.3058L23.9575 34.6238C23.259 35.4295 22.2689 35.9245 21.1346 36.0023H16V35.0023L16.0032 30.7873C16.0884 29.7328 16.5787 28.7523 17.3265 28.0934L28.6954 16.7246C29.1564 16.2608 29.7834 16 30.4374 16ZM21.064 34.0048C21.5982 33.967 22.0955 33.7184 22.4948 33.2616L30.0567 25.6997L26.3023 21.9452L18.6961 29.5496C18.291 29.9079 18.0403 30.4092 18 30.8678V34.0029L21.064 34.0048ZM27.7167 20.5312L31.4709 24.2855L33.8648 21.8916C33.9514 21.805 34.0001 21.6876 34.0001 21.5651C34.0001 21.4426 33.9514 21.3251 33.8648 21.2385L30.7611 18.1349C30.6755 18.0485 30.5589 18 30.4374 18C30.3158 18 30.1992 18.0485 30.1136 18.1349L27.7167 20.5312Z" fill="white"/>
</svg>
