<svg width="21" height="22" viewBox="0 0 21 22" fill="none" xmlns="http://www.w3.org/2000/svg">
<path d="M10.5 0.5C8.4233 0.5 6.39323 1.11581 4.66652 2.26957C2.9398 3.42332 1.59399 5.0632 0.79927 6.98182C0.00454947 8.90045 -0.203386 11.0116 0.201759 13.0484C0.606904 15.0852 1.60693 16.9562 3.07538 18.4246C4.54383 19.8931 6.41476 20.8931 8.45156 21.2982C10.4884 21.7034 12.5996 21.4955 14.5182 20.7007C16.4368 19.906 18.0767 18.5602 19.2304 16.8335C20.3842 15.1068 21 13.0767 21 11C20.9968 8.2162 19.8896 5.54733 17.9211 3.57889C15.9527 1.61044 13.2838 0.503176 10.5 0.5ZM6 18.7828V17.75C6.0006 17.1534 6.23784 16.5815 6.65967 16.1597C7.0815 15.7378 7.65345 15.5006 8.25 15.5H12.75C13.3466 15.5006 13.9185 15.7378 14.3403 16.1597C14.7622 16.5815 14.9994 17.1534 15 17.75V18.7828C13.6344 19.5802 12.0814 20.0004 10.5 20.0004C8.91862 20.0004 7.36563 19.5802 6 18.7828ZM16.494 17.6945C16.4791 16.7107 16.0782 15.7722 15.3779 15.0812C14.6776 14.3901 13.7339 14.0019 12.75 14H8.25C7.26614 14.0019 6.32238 14.3901 5.62207 15.0812C4.92176 15.7722 4.52095 16.7107 4.506 17.6945C3.14593 16.4801 2.1868 14.8812 1.75563 13.1095C1.32446 11.3378 1.44158 9.47701 2.09148 7.77339C2.74139 6.06978 3.89342 4.60375 5.39503 3.56942C6.89665 2.5351 8.67701 1.98127 10.5004 1.98127C12.3237 1.98127 14.1041 2.5351 15.6057 3.56942C17.1073 4.60375 18.2594 6.06978 18.9093 7.77339C19.5592 9.47701 19.6763 11.3378 19.2451 13.1095C18.814 14.8812 17.8548 16.4801 16.4948 17.6945H16.494Z" fill="white"/>
</svg>
